<mxfile host="app.diagrams.net" modified="2024-07-14T02:18:01.519Z" agent="Mozilla/5.0 (X11; Linux x86_64) AppleWebKit/537.36 (KHTML, like Gecko) Chrome/126.0.0.0 Safari/537.36" etag="1Tw_4tsYyBrxKPVu_OL6" version="24.4.9" type="device">
  <diagram name="Page-1" id="sF0V6yYtjN7-ZkTOr16g">
    <mxGraphModel dx="652" dy="367" grid="1" gridSize="10" guides="1" tooltips="1" connect="1" arrows="1" fold="1" page="1" pageScale="1" pageWidth="827" pageHeight="1169" math="0" shadow="0">
      <root>
        <mxCell id="0" />
        <mxCell id="1" parent="0" />
        <mxCell id="AFqsstGY97tO9qFjqIXD-2" value="Início" style="rounded=1;whiteSpace=wrap;html=1;arcSize=120;" vertex="1" parent="1">
          <mxGeometry x="210" y="270" width="80" height="60" as="geometry" />
        </mxCell>
        <mxCell id="AFqsstGY97tO9qFjqIXD-12" style="edgeStyle=none;curved=0;rounded=0;orthogonalLoop=1;jettySize=auto;html=1;exitX=1;exitY=1;exitDx=0;exitDy=0;entryX=0.5;entryY=0;entryDx=0;entryDy=0;fontSize=12;startSize=8;endSize=8;" edge="1" parent="1" source="AFqsstGY97tO9qFjqIXD-7" target="AFqsstGY97tO9qFjqIXD-11">
          <mxGeometry relative="1" as="geometry">
            <Array as="points">
              <mxPoint x="517" y="340" />
            </Array>
          </mxGeometry>
        </mxCell>
        <mxCell id="AFqsstGY97tO9qFjqIXD-13" value="Sim" style="edgeLabel;html=1;align=center;verticalAlign=middle;resizable=0;points=[];fontSize=12;" vertex="1" connectable="0" parent="AFqsstGY97tO9qFjqIXD-12">
          <mxGeometry x="-0.2875" y="-1" relative="1" as="geometry">
            <mxPoint y="-1" as="offset" />
          </mxGeometry>
        </mxCell>
        <mxCell id="AFqsstGY97tO9qFjqIXD-22" style="edgeStyle=none;curved=1;rounded=0;orthogonalLoop=1;jettySize=auto;html=1;exitX=1;exitY=0;exitDx=0;exitDy=0;entryX=0;entryY=0.5;entryDx=0;entryDy=0;fontSize=12;startSize=8;endSize=8;" edge="1" parent="1" source="AFqsstGY97tO9qFjqIXD-7" target="AFqsstGY97tO9qFjqIXD-18">
          <mxGeometry relative="1" as="geometry" />
        </mxCell>
        <mxCell id="AFqsstGY97tO9qFjqIXD-23" value="Não" style="edgeLabel;html=1;align=center;verticalAlign=middle;resizable=0;points=[];fontSize=12;" vertex="1" connectable="0" parent="AFqsstGY97tO9qFjqIXD-22">
          <mxGeometry x="-0.1735" relative="1" as="geometry">
            <mxPoint x="14" as="offset" />
          </mxGeometry>
        </mxCell>
        <mxCell id="AFqsstGY97tO9qFjqIXD-7" value="i &amp;gt;= 0" style="rhombus;whiteSpace=wrap;html=1;" vertex="1" parent="1">
          <mxGeometry x="350" y="280" width="80" height="80" as="geometry" />
        </mxCell>
        <mxCell id="AFqsstGY97tO9qFjqIXD-25" style="edgeStyle=orthogonalEdgeStyle;rounded=0;orthogonalLoop=1;jettySize=auto;html=1;exitX=1;exitY=0.5;exitDx=0;exitDy=0;entryX=0;entryY=0.5;entryDx=0;entryDy=0;fontSize=12;startSize=8;endSize=8;" edge="1" parent="1" source="AFqsstGY97tO9qFjqIXD-10" target="AFqsstGY97tO9qFjqIXD-7">
          <mxGeometry relative="1" as="geometry">
            <Array as="points">
              <mxPoint x="320" y="420" />
              <mxPoint x="320" y="320" />
            </Array>
          </mxGeometry>
        </mxCell>
        <mxCell id="AFqsstGY97tO9qFjqIXD-10" value="previous = 0&lt;div&gt;next = 0&lt;/div&gt;" style="shape=parallelogram;perimeter=parallelogramPerimeter;whiteSpace=wrap;html=1;fixedSize=1;" vertex="1" parent="1">
          <mxGeometry x="190" y="390" width="120" height="60" as="geometry" />
        </mxCell>
        <mxCell id="AFqsstGY97tO9qFjqIXD-16" style="edgeStyle=none;curved=1;rounded=0;orthogonalLoop=1;jettySize=auto;html=1;exitX=0;exitY=0.5;exitDx=0;exitDy=0;entryX=1;entryY=0.5;entryDx=0;entryDy=0;fontSize=12;startSize=8;endSize=8;" edge="1" parent="1" source="AFqsstGY97tO9qFjqIXD-11" target="AFqsstGY97tO9qFjqIXD-15">
          <mxGeometry relative="1" as="geometry" />
        </mxCell>
        <mxCell id="AFqsstGY97tO9qFjqIXD-11" value="Escolher ramo" style="shape=parallelogram;perimeter=parallelogramPerimeter;whiteSpace=wrap;html=1;fixedSize=1;" vertex="1" parent="1">
          <mxGeometry x="460" y="390" width="115" height="60" as="geometry" />
        </mxCell>
        <mxCell id="AFqsstGY97tO9qFjqIXD-26" style="edgeStyle=elbowEdgeStyle;rounded=0;orthogonalLoop=1;jettySize=auto;html=1;exitX=0;exitY=0.5;exitDx=0;exitDy=0;fontSize=12;startSize=8;endSize=8;" edge="1" parent="1" source="AFqsstGY97tO9qFjqIXD-15">
          <mxGeometry relative="1" as="geometry">
            <mxPoint x="350" y="320" as="targetPoint" />
            <Array as="points">
              <mxPoint x="320" y="370" />
            </Array>
          </mxGeometry>
        </mxCell>
        <mxCell id="AFqsstGY97tO9qFjqIXD-15" value="i = i - 1" style="shape=parallelogram;perimeter=parallelogramPerimeter;whiteSpace=wrap;html=1;fixedSize=1;" vertex="1" parent="1">
          <mxGeometry x="320" y="390" width="120" height="60" as="geometry" />
        </mxCell>
        <mxCell id="AFqsstGY97tO9qFjqIXD-18" value="Fim" style="ellipse;whiteSpace=wrap;html=1;" vertex="1" parent="1">
          <mxGeometry x="495" y="270" width="80" height="60" as="geometry" />
        </mxCell>
        <mxCell id="AFqsstGY97tO9qFjqIXD-21" style="edgeStyle=none;curved=1;rounded=0;orthogonalLoop=1;jettySize=auto;html=1;entryX=0.5;entryY=0;entryDx=0;entryDy=0;fontSize=12;startSize=8;endSize=8;exitX=0.5;exitY=1;exitDx=0;exitDy=0;" edge="1" parent="1" source="AFqsstGY97tO9qFjqIXD-2" target="AFqsstGY97tO9qFjqIXD-10">
          <mxGeometry relative="1" as="geometry">
            <mxPoint x="270" y="350" as="sourcePoint" />
          </mxGeometry>
        </mxCell>
      </root>
    </mxGraphModel>
  </diagram>
</mxfile>
